Coordinates
version=1
nRows=25
nColumns=23
inDegrees=yes

Units are S.I. units (second, meters, Newtons, ...)
If the header above contains a line with 'inDegrees', this indicates whether rotational values are in degrees (yes) or radians (no).

endheader
time	pelvis_tilt	pelvis_list	pelvis_rotation	pelvis_tx	pelvis_ty	pelvis_tz	hip_flexion_r	hip_adduction_r	hip_rotation_r	knee_angle_r	knee_angle_r_beta	ankle_angle_r	subtalar_angle_r	mtp_angle_r	hip_flexion_l	hip_adduction_l	hip_rotation_l	knee_angle_l	knee_angle_l_beta	ankle_angle_l	subtalar_angle_l	mtp_angle_l
      0.00000000	    -13.54017648	     -5.43093554	     -1.26516692	      2.28753256	      1.01473213	      1.02140393	     49.67349351	      4.77250915	    -10.16005944	     62.46003016	      1.09013318	      4.86527787	    -11.65921301	      0.00000000	    -14.24139671	     -5.39619922	     -7.30776322	     15.49146683	      0.27037710	    -15.78191254	      0.31602459	      0.00000000
      0.00666667	    -13.86725987	     -5.22594548	     -1.60694821	      2.28888392	      1.01627269	      1.02144501	     49.72734048	      4.71867265	    -10.28096124	     57.44919545	      1.00267761	      5.55485568	    -10.68669113	      0.00000000	    -14.25471854	     -5.22777352	     -8.36605813	     18.11932100	      0.31624181	    -15.62483724	     -1.30422642	      0.00000000
      0.01333333	    -14.37968878	     -5.19222161	     -1.68896261	      2.29014404	      1.01723750	      1.02138510	     49.66161936	      4.67019044	    -10.75208851	     52.02525624	      0.90801202	      6.31982735	     -9.42461933	      0.00000000	    -13.87726083	     -5.46725433	     -9.52968095	     21.15757776	      0.36926939	    -14.93011118	     -1.79373091	      0.00000000
      0.02000000	    -14.64589989	     -5.15407125	     -1.75816945	      2.29158630	      1.01816486	      1.02138764	     49.06396506	      4.75868520	    -11.09607781	     46.31308366	      0.80831580	      7.11794924	     -7.95598553	      0.00000000	    -13.96169986	     -5.56304786	    -10.04993197	     23.79108152	      0.41523271	    -14.62869746	     -3.13992718	      0.00000000
      0.02666667	    -14.87127692	     -5.03609265	     -1.77671419	      2.29306102	      1.01859472	      1.02154285	     48.23764153	      4.87513536	    -11.27300925	     40.50073040	      0.70687109	      7.91314845	     -6.24837779	      0.00000000	    -14.01885967	     -5.59315816	    -10.32562527	     26.56297655	      0.46361140	    -14.34599371	     -4.56908925	      0.00000000
      0.03333333	    -15.03310425	     -4.77353877	     -1.75682320	      2.29454494	      1.01856357	      1.02185050	     47.21797440	      4.96616583	    -11.16283201	     34.74753423	      0.60645888	      8.72059067	     -4.34492455	      0.00000000	    -14.04278615	     -5.44546028	    -10.21788689	     29.49665465	      0.51481374	    -14.00813028	     -5.97471045	      0.00000000
      0.04000000	    -14.91040348	     -4.49116762	     -1.48833495	      2.29596053	      1.01830860	      1.02205170	     45.81442568	      4.87761120	    -11.19704805	     29.19987585	      0.50963397	      9.30217642	     -2.24453588	      0.00000000	    -14.13184789	     -5.36689638	     -9.81610198	     32.80673534	      0.57258555	    -13.84306047	     -7.15473040	      0.00000000
      0.04666667	    -14.79006405	     -4.02247944	     -1.26272042	      2.29729749	      1.01741601	      1.02238192	     44.45456625	      4.73363273	    -10.74114134	     24.12065408	      0.42098483	      9.82830037	     -0.28802695	      0.00000000	    -14.07215390	     -5.02887081	     -9.11331124	     36.36866076	      0.63475287	    -13.66297952	     -8.43096033	      0.00000000
      0.05333333	    -14.61274471	     -3.42793261	     -0.99629178	      2.29839932	      1.01603538	      1.02269440	     43.14276265	      4.44034380	    -10.00794038	     19.69067798	      0.34366716	     10.19004375	      1.36201252	      0.00000000	    -13.86466418	     -4.52607752	     -8.15048879	     40.24872791	      0.70247282	    -13.56787244	     -9.65783045	      0.00000000
      0.06000000	    -14.42096774	     -2.76423536	     -0.73608038	      2.29918072	      1.01414610	      1.02296850	     42.00597509	      4.01953592	     -9.13674182	     16.11745938	      0.28130273	     10.37053612	      2.72966912	      0.00000000	    -13.47038640	     -3.90234907	     -7.05403206	     44.44961325	      0.77579210	    -13.48789074	    -10.77655377	      0.00000000
      0.06666667	    -14.21352075	     -2.11857412	     -0.52999958	      2.29964711	      1.01191498	      1.02320829	     40.97048205	      3.64166381	     -7.72597561	     13.26751289	      0.23156178	     10.14146339	      2.83613924	      0.00000000	    -12.91779316	     -3.23303135	     -5.95996398	     48.90347350	      0.85352663	    -13.45471556	    -11.67019596	      0.00000000
      0.07333333	    -14.00117762	     -1.52687357	     -0.36620603	      2.29966446	      1.00931571	      1.02337067	     40.29699011	      3.13601070	     -7.03109032	     11.68705624	      0.20397761	      9.96012602	      3.62893619	      0.00000000	    -12.18637874	     -2.56766583	     -4.91785194	     53.60706922	      0.93561986	    -13.41790798	    -12.39900093	      0.00000000
      0.08000000	    -13.82856558	     -1.11985722	     -0.25465912	      2.29926378	      1.00639530	      1.02351428	     39.87610985	      2.77245461	     -6.45012776	     11.03185882	      0.19254226	      9.37512515	      3.82043929	      0.00000000	    -11.24257974	     -2.06123379	     -4.01170422	     58.51855530	      1.02134146	    -13.33645289	    -12.89849166	      0.00000000
      0.08666667	    -13.68460024	     -0.85181463	     -0.25959105	      2.29841303	      1.00311152	      1.02375244	     39.74689517	      2.54858023	     -6.00871906	     11.37964301	      0.19861224	      8.38995066	      3.39610006	      0.00000000	    -10.13558455	     -1.71489216	     -3.39521372	     63.55271256	      1.10920408	    -13.22068870	    -13.14921624	      0.00000000
      0.09333333	    -13.79624775	     -0.63336800	     -0.39731886	      2.29702262	      0.99918716	      1.02403518	     40.14141352	      2.43682436	     -5.40627150	     12.69047410	      0.22149056	      7.11061426	      2.30737426	      0.00000000	     -8.60594803	     -1.42205232	     -3.03536887	     68.68977750	      1.19886278	    -13.09062740	    -12.94419714	      0.00000000
      0.10000000	    -13.79062788	     -0.54500254	     -0.69646982	      2.29534516	      0.99500277	      1.02444730	     40.64376225	      2.50722901	     -4.88013861	     14.91711577	      0.26035279	      5.59288962	      0.81596982	      0.00000000	     -7.14047390	     -1.25797506	     -2.90715956	     73.76810697	      1.28749635	    -12.85010598	    -12.75707827	      0.00000000
      0.10666667	    -13.67141488	     -0.60195521	     -1.02665900	      2.29348455	      0.99056807	      1.02484348	     41.20335402	      2.64101569	     -4.79229789	     17.95397909	      0.31335605	      4.15168676	     -0.51138189	      0.00000000	     -5.71961050	     -1.28677137	     -2.89715507	     78.78395824	      1.37503947	    -12.50670075	    -12.45269951	      0.00000000
      0.11333333	    -13.60622104	     -0.65226869	     -1.46009003	      2.29140083	      0.98559674	      1.02528390	     41.96590804	      2.79214923	     -4.69217510	     21.66467248	      0.37811987	      3.01439878	     -1.85310024	      0.00000000	     -4.17638278	     -1.34241048	     -3.03733760	     83.69557988	      1.46076344	    -12.05544969	    -12.12848027	      0.00000000
      0.12000000	    -13.44464309	     -0.74982505	     -1.90890674	      2.28922870	      0.98044088	      1.02568973	     42.62186022	      2.97855374	     -4.55828397	     25.72262673	      0.44894453	      2.42226214	     -3.14107682	      0.00000000	     -2.67015597	     -1.48509075	     -3.21520051	     88.46489109	      1.54400362	    -11.47208518	    -11.73563205	      0.00000000
      0.12666667	    -13.29991607	     -0.91946414	     -2.39983249	      2.28694761	      0.97506401	      1.02609326	     43.20940147	      3.26974333	     -4.30672754	     29.89558009	      0.52177630	      2.49010754	     -4.35904823	      0.00000000	     -1.07623134	     -1.74769735	     -3.43314680	     93.06796580	      1.62434243	    -10.75287153	    -11.35645018	      0.00000000
      0.13333333	    -12.73139624	     -1.36799803	     -2.85125064	      2.28486929	      0.97042488	      1.02655510	     43.05236096	      3.83736146	     -4.00893291	     33.78758601	      0.58970462	      3.27859362	     -5.52262334	      0.00000000	      0.09034045	     -2.35965649	     -3.58718848	     97.41300132	      1.70017761	    -10.03390575	    -11.21008045	      0.00000000
      0.14000000	    -12.98798688	     -1.54310063	     -3.38145511	      2.28224418	      0.96475506	      1.02707230	     43.70319566	      4.29008094	     -3.40782195	     37.62145402	      0.65661824	      4.60435580	     -6.43583400	      0.00000000	      2.35119670	     -2.76047024	     -3.76862749	    101.70312917	      1.77505446	     -8.94108713	    -10.31235311	      0.00000000
      0.14666667	    -13.00902632	     -2.00118884	     -3.79128231	      2.27975627	      0.95997620	      1.02756979	     43.70013902	      4.95707440	     -2.97699793	     40.88694521	      0.71361181	      6.45202507	     -7.11843567	      0.00000000	      4.45795432	     -3.51591686	     -3.73487932	    105.73353586	      1.84539833	     -7.88442040	     -9.67615380	      0.00000000
      0.15333333	    -13.02510073	     -2.55422279	     -4.19262821	      2.27729839	      0.95581160	      1.02810202	     43.35337288	      5.73670811	     -2.55360904	     43.63073333	      0.76149995	      8.60597822	     -7.59977225	      0.00000000	      6.67251992	     -4.43384427	     -3.60079050	    109.46831660	      1.91058255	     -6.79762167	     -8.86839722	      0.00000000
      0.16000000	    -13.25507826	     -3.14840939	     -4.46792720	      2.27471917	      0.95212497	      1.02859237	     42.90250715	      6.48386754	     -2.28536125	     45.82803293	      0.79985006	     10.91754736	     -7.78163672	      0.00000000	      9.32802848	     -5.41202282	     -3.18337290	    112.94794862	      1.97131359	     -5.63659624	     -7.87912590	      0.00000000
